<svg xmlns="http://www.w3.org/2000/svg" viewBox="0 0 32 32">
  <rect width="32" height="32" rx="7" fill="#0B0F1E"/>
  <!-- Left ear -->
  <path d="M8 5 L10.5 5 L13 13 L11 13 Z" fill="#FF6B2C"/>
  <!-- Right ear -->
  <path d="M24 5 L21.5 5 L19 13 L21 13 Z" fill="#FF6B2C"/>
  <!-- Head -->
  <path d="M7 15 Q7 26 16 27 Q25 26 25 15 Q22 11.5 16 11.5 Q10 11.5 7 15 Z" fill="#FF6B2C"/>
  <!-- Eyes -->
  <circle cx="12.6" cy="17.5" r="1.5" fill="#0B0F1E"/>
  <circle cx="19.4" cy="17.5" r="1.5" fill="#0B0F1E"/>
  <!-- Snout / nose -->
  <ellipse cx="16" cy="22.2" rx="2.4" ry="1.4" fill="#0B0F1E"/>
  <!-- Mouth line -->
  <path d="M16 23.6 L14.5 25.2 M16 23.6 L17.5 25.2" stroke="#0B0F1E" stroke-width="0.9" stroke-linecap="round" fill="none"/>
  <!-- Forehead stripes -->
  <path d="M14 13.5 Q14.4 14.8 13.6 15.6" stroke="#0B0F1E" stroke-width="0.9" stroke-linecap="round" fill="none"/>
  <path d="M16 13 L16 15.4" stroke="#0B0F1E" stroke-width="0.9" stroke-linecap="round" fill="none"/>
  <path d="M18 13.5 Q17.6 14.8 18.4 15.6" stroke="#0B0F1E" stroke-width="0.9" stroke-linecap="round" fill="none"/>
</svg>
